<svg width="1380" height="96" viewBox="0 0 1380 96" fill="none" xmlns="http://www.w3.org/2000/svg">
<path d="M40.7473 57.75H39.4995C39.3741 57.75 39.2508 57.7185 39.1407 57.6585C39.0306 57.5984 38.9373 57.5118 38.8694 57.4064C38.8015 57.301 38.761 57.1803 38.7518 57.0552C38.7426 56.9302 38.7648 56.8048 38.8165 56.6906L41.8381 50.0227L37.3011 49.9219L35.6464 51.9267C35.3309 52.3233 35.0792 52.5 34.437 52.5H33.597C33.464 52.5043 33.332 52.4764 33.212 52.4188C33.0921 52.3612 32.9878 52.2755 32.908 52.1691C32.7964 52.0186 32.6867 51.7636 32.7936 51.3998L33.7226 48.0717C33.7297 48.0469 33.7381 48.022 33.7475 47.9977C33.748 47.9953 33.748 47.9929 33.7475 47.9906C33.7378 47.9663 33.7295 47.9414 33.7226 47.9161L32.7926 44.5669C32.6919 44.2102 32.802 43.9608 32.9126 43.8141C32.9869 43.7155 33.0833 43.6357 33.194 43.5812C33.3047 43.5266 33.4267 43.4988 33.5501 43.5H34.437C34.9165 43.5 35.382 43.7152 35.6558 44.0625L37.2762 46.0336L41.8381 45.9661L38.8175 39.3098C38.7657 39.1957 38.7433 39.0704 38.7525 38.9453C38.7616 38.8203 38.802 38.6996 38.8698 38.5941C38.9376 38.4887 39.0308 38.402 39.1408 38.3419C39.2508 38.2817 39.3742 38.2502 39.4995 38.25H40.7609C40.9369 38.2535 41.1098 38.2967 41.2669 38.3762C41.4239 38.4557 41.561 38.5696 41.668 38.7094L47.5297 45.8344L50.2376 45.7631C50.4359 45.7523 50.9853 45.7486 51.1123 45.7486C53.7026 45.75 55.2495 46.5909 55.2495 48C55.2495 48.4434 55.0723 49.2656 53.8869 49.7887C53.187 50.0981 52.2533 50.2547 51.1114 50.2547C50.9858 50.2547 50.4378 50.2509 50.2367 50.2402L47.5292 50.168L41.653 57.293C41.5459 57.4321 41.4089 57.5454 41.2522 57.6246C41.0954 57.7037 40.9229 57.7465 40.7473 57.75Z" fill="white"/>
<path d="M62.982 48.208H67.868V49.748H62.982V48.208ZM63.136 53.5H61.316V43.7H68.47V45.226H63.136V53.5ZM70.0621 53.5V46.024H71.8121V53.5H70.0621ZM70.9441 44.792C70.6174 44.792 70.3467 44.6893 70.1321 44.484C69.9267 44.2787 69.8241 44.0313 69.8241 43.742C69.8241 43.4433 69.9267 43.196 70.1321 43C70.3467 42.7947 70.6174 42.692 70.9441 42.692C71.2707 42.692 71.5367 42.79 71.7421 42.986C71.9567 43.1727 72.0641 43.4107 72.0641 43.7C72.0641 44.008 71.9614 44.2693 71.7561 44.484C71.5507 44.6893 71.2801 44.792 70.9441 44.792ZM78.3509 45.94C78.9483 45.94 79.4803 46.0567 79.9469 46.29C80.4229 46.5233 80.7963 46.8827 81.0669 47.368C81.3376 47.844 81.4729 48.46 81.4729 49.216V53.5H79.7229V49.44C79.7229 48.7773 79.5643 48.2827 79.2469 47.956C78.9389 47.6293 78.5049 47.466 77.9449 47.466C77.5343 47.466 77.1703 47.55 76.8529 47.718C76.5356 47.886 76.2883 48.138 76.1109 48.474C75.9429 48.8007 75.8589 49.216 75.8589 49.72V53.5H74.1089V46.024H75.7749V48.04L75.4809 47.424C75.7423 46.948 76.1203 46.584 76.6149 46.332C77.1189 46.0707 77.6976 45.94 78.3509 45.94ZM86.8706 53.598C86.1519 53.598 85.5033 53.4393 84.9246 53.122C84.3553 52.7953 83.9073 52.3473 83.5806 51.778C83.2539 51.2087 83.0906 50.5367 83.0906 49.762C83.0906 48.9873 83.2539 48.3153 83.5806 47.746C83.9073 47.1767 84.3553 46.7333 84.9246 46.416C85.5033 46.0987 86.1519 45.94 86.8706 45.94C87.4959 45.94 88.0559 46.08 88.5506 46.36C89.0453 46.6307 89.4373 47.046 89.7266 47.606C90.0159 48.166 90.1606 48.8847 90.1606 49.762C90.1606 50.63 90.0206 51.3487 89.7406 51.918C89.4606 52.478 89.0733 52.898 88.5786 53.178C88.0839 53.458 87.5146 53.598 86.8706 53.598ZM87.0806 52.1C87.5006 52.1 87.8739 52.0067 88.2006 51.82C88.5366 51.6333 88.8026 51.3627 88.9986 51.008C89.2039 50.6533 89.3066 50.238 89.3066 49.762C89.3066 49.2767 89.2039 48.8613 88.9986 48.516C88.8026 48.1613 88.5366 47.8907 88.2006 47.704C87.8739 47.5173 87.5006 47.424 87.0806 47.424C86.6606 47.424 86.2826 47.5173 85.9466 47.704C85.6199 47.8907 85.3539 48.1613 85.1486 48.516C84.9526 48.8613 84.8546 49.2767 84.8546 49.762C84.8546 50.238 84.9526 50.6533 85.1486 51.008C85.3539 51.3627 85.6199 51.6333 85.9466 51.82C86.2826 52.0067 86.6606 52.1 87.0806 52.1ZM89.3486 53.5V51.736L89.4186 49.748L89.2786 47.76V43.112H91.0146V53.5H89.3486ZM99.0211 48.208H103.907V49.748H99.0211V48.208ZM99.1751 53.5H97.3551V43.7H104.509V45.226H99.1751V53.5ZM106.101 53.5V43.112H107.851V53.5H106.101ZM110.148 53.5V46.024H111.898V53.5H110.148ZM111.03 44.792C110.703 44.792 110.433 44.6893 110.218 44.484C110.013 44.2787 109.91 44.0313 109.91 43.742C109.91 43.4433 110.013 43.196 110.218 43C110.433 42.7947 110.703 42.692 111.03 42.692C111.357 42.692 111.623 42.79 111.828 42.986C112.043 43.1727 112.15 43.4107 112.15 43.7C112.15 44.008 112.047 44.2693 111.842 44.484C111.637 44.6893 111.366 44.792 111.03 44.792ZM117.583 56.314C116.892 56.314 116.216 56.2207 115.553 56.034C114.9 55.8567 114.363 55.5953 113.943 55.25L114.727 53.934C115.054 54.2047 115.464 54.4193 115.959 54.578C116.463 54.746 116.972 54.83 117.485 54.83C118.306 54.83 118.908 54.6387 119.291 54.256C119.674 53.8827 119.865 53.318 119.865 52.562V51.232L120.005 49.538L119.949 47.844V46.024H121.615V52.366C121.615 53.7193 121.27 54.7133 120.579 55.348C119.888 55.992 118.89 56.314 117.583 56.314ZM117.359 53.164C116.65 53.164 116.006 53.0147 115.427 52.716C114.858 52.408 114.405 51.9833 114.069 51.442C113.742 50.9007 113.579 50.266 113.579 49.538C113.579 48.8193 113.742 48.1893 114.069 47.648C114.405 47.1067 114.858 46.6867 115.427 46.388C116.006 46.0893 116.65 45.94 117.359 45.94C117.994 45.94 118.563 46.066 119.067 46.318C119.571 46.57 119.972 46.962 120.271 47.494C120.579 48.026 120.733 48.7073 120.733 49.538C120.733 50.3687 120.579 51.0547 120.271 51.596C119.972 52.128 119.571 52.5247 119.067 52.786C118.563 53.038 117.994 53.164 117.359 53.164ZM117.625 51.68C118.064 51.68 118.456 51.5913 118.801 51.414C119.146 51.2273 119.412 50.9753 119.599 50.658C119.795 50.3313 119.893 49.958 119.893 49.538C119.893 49.118 119.795 48.7493 119.599 48.432C119.412 48.1053 119.146 47.858 118.801 47.69C118.456 47.5127 118.064 47.424 117.625 47.424C117.186 47.424 116.79 47.5127 116.435 47.69C116.09 47.858 115.819 48.1053 115.623 48.432C115.436 48.7493 115.343 49.118 115.343 49.538C115.343 49.958 115.436 50.3313 115.623 50.658C115.819 50.9753 116.09 51.2273 116.435 51.414C116.79 51.5913 117.186 51.68 117.625 51.68ZM128.158 45.94C128.755 45.94 129.287 46.0567 129.754 46.29C130.23 46.5233 130.603 46.8827 130.874 47.368C131.144 47.844 131.28 48.46 131.28 49.216V53.5H129.53V49.44C129.53 48.7773 129.371 48.2827 129.054 47.956C128.746 47.6293 128.312 47.466 127.752 47.466C127.341 47.466 126.977 47.55 126.66 47.718C126.342 47.886 126.095 48.138 125.918 48.474C125.75 48.8007 125.666 49.216 125.666 49.72V53.5H123.916V43.112H125.666V48.04L125.288 47.424C125.549 46.948 125.927 46.584 126.422 46.332C126.926 46.0707 127.504 45.94 128.158 45.94ZM136.314 53.598C135.492 53.598 134.858 53.388 134.41 52.968C133.962 52.5387 133.738 51.9087 133.738 51.078V44.372H135.488V51.036C135.488 51.3907 135.576 51.666 135.754 51.862C135.94 52.058 136.197 52.156 136.524 52.156C136.916 52.156 137.242 52.0533 137.504 51.848L137.994 53.094C137.788 53.262 137.536 53.388 137.238 53.472C136.939 53.556 136.631 53.598 136.314 53.598ZM132.506 47.48V46.08H137.49V47.48H132.506Z" fill="white"/>
<path d="M191.25 46.8141C190.777 46.6065 190.266 46.4996 189.75 46.5H176.25C175.734 46.4995 175.223 46.6063 174.75 46.8136C174.082 47.1059 173.513 47.5865 173.113 48.1968C172.714 48.8071 172.501 49.5205 172.5 50.25V55.5C172.5 55.6989 172.579 55.8897 172.72 56.0303C172.86 56.171 173.051 56.25 173.25 56.25C173.449 56.25 173.64 56.171 173.78 56.0303C173.921 55.8897 174 55.6989 174 55.5V55.125C174.001 55.0259 174.041 54.9312 174.111 54.8612C174.181 54.7911 174.276 54.7512 174.375 54.75H191.625C191.724 54.7512 191.819 54.7911 191.889 54.8612C191.959 54.9312 191.999 55.0259 192 55.125V55.5C192 55.6989 192.079 55.8897 192.22 56.0303C192.36 56.171 192.551 56.25 192.75 56.25C192.949 56.25 193.14 56.171 193.28 56.0303C193.421 55.8897 193.5 55.6989 193.5 55.5V50.25C193.499 49.5206 193.286 48.8073 192.887 48.1971C192.487 47.5869 191.918 47.1063 191.25 46.8141ZM188.625 39.75H177.375C176.679 39.75 176.011 40.0266 175.519 40.5188C175.027 41.0111 174.75 41.6788 174.75 42.375V45.75C174.75 45.7791 174.757 45.8077 174.77 45.8337C174.783 45.8597 174.802 45.8823 174.825 45.8998C174.848 45.9172 174.875 45.929 174.904 45.9343C174.932 45.9395 174.962 45.9381 174.99 45.93C175.399 45.8102 175.823 45.7496 176.25 45.75H176.448C176.495 45.7503 176.539 45.7335 176.574 45.7027C176.609 45.672 176.631 45.6296 176.636 45.5836C176.677 45.2171 176.851 44.8786 177.126 44.6326C177.401 44.3866 177.756 44.2504 178.125 44.25H180.75C181.119 44.25 181.475 44.3861 181.75 44.6321C182.025 44.8781 182.2 45.2169 182.241 45.5836C182.246 45.6296 182.268 45.672 182.302 45.7027C182.337 45.7335 182.382 45.7503 182.428 45.75H183.575C183.621 45.7503 183.666 45.7335 183.7 45.7027C183.735 45.672 183.757 45.6296 183.762 45.5836C183.803 45.2174 183.977 44.879 184.252 44.633C184.526 44.3871 184.881 44.2507 185.25 44.25H187.875C188.244 44.25 188.6 44.3861 188.875 44.6321C189.15 44.8781 189.325 45.2169 189.366 45.5836C189.371 45.6296 189.393 45.672 189.427 45.7027C189.462 45.7335 189.507 45.7503 189.553 45.75H189.75C190.177 45.7498 190.601 45.8106 191.01 45.9305C191.038 45.9385 191.068 45.94 191.096 45.9347C191.125 45.9295 191.152 45.9176 191.175 45.9001C191.199 45.8826 191.217 45.8599 191.23 45.8339C191.243 45.8078 191.25 45.7791 191.25 45.75V42.375C191.25 41.6788 190.973 41.0111 190.481 40.5188C189.989 40.0266 189.321 39.75 188.625 39.75Z" fill="white"/>
<path d="M201.982 48.208H206.868V49.748H201.982V48.208ZM202.136 53.5H200.316V43.7H207.47V45.226H202.136V53.5ZM209.062 53.5V46.024H210.812V53.5H209.062ZM209.944 44.792C209.617 44.792 209.347 44.6893 209.132 44.484C208.927 44.2787 208.824 44.0313 208.824 43.742C208.824 43.4433 208.927 43.196 209.132 43C209.347 42.7947 209.617 42.692 209.944 42.692C210.271 42.692 210.537 42.79 210.742 42.986C210.957 43.1727 211.064 43.4107 211.064 43.7C211.064 44.008 210.961 44.2693 210.756 44.484C210.551 44.6893 210.28 44.792 209.944 44.792ZM217.351 45.94C217.948 45.94 218.48 46.0567 218.947 46.29C219.423 46.5233 219.796 46.8827 220.067 47.368C220.338 47.844 220.473 48.46 220.473 49.216V53.5H218.723V49.44C218.723 48.7773 218.564 48.2827 218.247 47.956C217.939 47.6293 217.505 47.466 216.945 47.466C216.534 47.466 216.17 47.55 215.853 47.718C215.536 47.886 215.288 48.138 215.111 48.474C214.943 48.8007 214.859 49.216 214.859 49.72V53.5H213.109V46.024H214.775V48.04L214.481 47.424C214.742 46.948 215.12 46.584 215.615 46.332C216.119 46.0707 216.698 45.94 217.351 45.94ZM225.871 53.598C225.152 53.598 224.503 53.4393 223.925 53.122C223.355 52.7953 222.907 52.3473 222.581 51.778C222.254 51.2087 222.091 50.5367 222.091 49.762C222.091 48.9873 222.254 48.3153 222.581 47.746C222.907 47.1767 223.355 46.7333 223.925 46.416C224.503 46.0987 225.152 45.94 225.871 45.94C226.496 45.94 227.056 46.08 227.551 46.36C228.045 46.6307 228.437 47.046 228.727 47.606C229.016 48.166 229.161 48.8847 229.161 49.762C229.161 50.63 229.021 51.3487 228.741 51.918C228.461 52.478 228.073 52.898 227.579 53.178C227.084 53.458 226.515 53.598 225.871 53.598ZM226.081 52.1C226.501 52.1 226.874 52.0067 227.201 51.82C227.537 51.6333 227.803 51.3627 227.999 51.008C228.204 50.6533 228.307 50.238 228.307 49.762C228.307 49.2767 228.204 48.8613 227.999 48.516C227.803 48.1613 227.537 47.8907 227.201 47.704C226.874 47.5173 226.501 47.424 226.081 47.424C225.661 47.424 225.283 47.5173 224.947 47.704C224.62 47.8907 224.354 48.1613 224.149 48.516C223.953 48.8613 223.855 49.2767 223.855 49.762C223.855 50.238 223.953 50.6533 224.149 51.008C224.354 51.3627 224.62 51.6333 224.947 51.82C225.283 52.0067 225.661 52.1 226.081 52.1ZM228.349 53.5V51.736L228.419 49.748L228.279 47.76V43.112H230.015V53.5H228.349ZM239.393 53.64C238.628 53.64 237.895 53.5327 237.195 53.318C236.495 53.094 235.94 52.8093 235.529 52.464L236.159 51.05C236.551 51.358 237.036 51.6147 237.615 51.82C238.194 52.0253 238.786 52.128 239.393 52.128C239.906 52.128 240.322 52.072 240.639 51.96C240.956 51.848 241.19 51.6987 241.339 51.512C241.488 51.316 241.563 51.0967 241.563 50.854C241.563 50.5553 241.456 50.3173 241.241 50.14C241.026 49.9533 240.746 49.8087 240.401 49.706C240.065 49.594 239.687 49.4913 239.267 49.398C238.856 49.3047 238.441 49.1973 238.021 49.076C237.61 48.9453 237.232 48.782 236.887 48.586C236.551 48.3807 236.276 48.11 236.061 47.774C235.846 47.438 235.739 47.0087 235.739 46.486C235.739 45.954 235.879 45.4687 236.159 45.03C236.448 44.582 236.882 44.2273 237.461 43.966C238.049 43.6953 238.791 43.56 239.687 43.56C240.275 43.56 240.858 43.6347 241.437 43.784C242.016 43.9333 242.52 44.148 242.949 44.428L242.375 45.842C241.936 45.5807 241.484 45.3893 241.017 45.268C240.55 45.1373 240.102 45.072 239.673 45.072C239.169 45.072 238.758 45.1327 238.441 45.254C238.133 45.3753 237.904 45.534 237.755 45.73C237.615 45.926 237.545 46.15 237.545 46.402C237.545 46.7007 237.648 46.9433 237.853 47.13C238.068 47.3073 238.343 47.4473 238.679 47.55C239.024 47.6527 239.407 47.7553 239.827 47.858C240.247 47.9513 240.662 48.0587 241.073 48.18C241.493 48.3013 241.871 48.46 242.207 48.656C242.552 48.852 242.828 49.118 243.033 49.454C243.248 49.79 243.355 50.2147 243.355 50.728C243.355 51.2507 243.21 51.736 242.921 52.184C242.641 52.6227 242.207 52.9773 241.619 53.248C241.031 53.5093 240.289 53.64 239.393 53.64ZM247.806 53.598C246.984 53.598 246.35 53.388 245.902 52.968C245.454 52.5387 245.23 51.9087 245.23 51.078V44.372H246.98V51.036C246.98 51.3907 247.068 51.666 247.246 51.862C247.432 52.058 247.689 52.156 248.016 52.156C248.408 52.156 248.734 52.0533 248.996 51.848L249.486 53.094C249.28 53.262 249.028 53.388 248.73 53.472C248.431 53.556 248.123 53.598 247.806 53.598ZM243.998 47.48V46.08H248.982V47.48H243.998ZM255.531 53.5V51.988L255.433 51.666V49.02C255.433 48.5067 255.279 48.11 254.971 47.83C254.663 47.5407 254.197 47.396 253.571 47.396C253.151 47.396 252.736 47.4613 252.325 47.592C251.924 47.7227 251.583 47.9047 251.303 48.138L250.617 46.864C251.019 46.556 251.495 46.3273 252.045 46.178C252.605 46.0193 253.184 45.94 253.781 45.94C254.864 45.94 255.699 46.2013 256.287 46.724C256.885 47.2373 257.183 48.0353 257.183 49.118V53.5H255.531ZM253.179 53.598C252.619 53.598 252.129 53.5047 251.709 53.318C251.289 53.122 250.963 52.856 250.729 52.52C250.505 52.1747 250.393 51.7873 250.393 51.358C250.393 50.938 250.491 50.56 250.687 50.224C250.893 49.888 251.224 49.622 251.681 49.426C252.139 49.23 252.745 49.132 253.501 49.132H255.671V50.294H253.627C253.03 50.294 252.629 50.392 252.423 50.588C252.218 50.7747 252.115 51.008 252.115 51.288C252.115 51.6053 252.241 51.8573 252.493 52.044C252.745 52.2307 253.095 52.324 253.543 52.324C253.973 52.324 254.355 52.226 254.691 52.03C255.037 51.834 255.284 51.5447 255.433 51.162L255.727 52.212C255.559 52.6507 255.256 52.9913 254.817 53.234C254.388 53.4767 253.842 53.598 253.179 53.598ZM259.909 56.314C259.545 56.314 259.181 56.2533 258.817 56.132C258.453 56.0107 258.149 55.8427 257.907 55.628L258.607 54.34C258.784 54.4987 258.985 54.6247 259.209 54.718C259.433 54.8113 259.661 54.858 259.895 54.858C260.212 54.858 260.469 54.7787 260.665 54.62C260.861 54.4613 261.043 54.1953 261.211 53.822L261.645 52.842L261.785 52.632L264.613 46.024H266.293L262.793 54.102C262.559 54.662 262.298 55.1053 262.009 55.432C261.729 55.7587 261.411 55.9873 261.057 56.118C260.711 56.2487 260.329 56.314 259.909 56.314ZM261.449 53.766L258.075 46.024H259.895L262.639 52.478L261.449 53.766ZM269.601 53.598C268.975 53.598 268.373 53.5187 267.795 53.36C267.225 53.192 266.773 52.9913 266.437 52.758L267.109 51.428C267.445 51.6427 267.846 51.82 268.313 51.96C268.779 52.1 269.246 52.17 269.713 52.17C270.263 52.17 270.66 52.0953 270.903 51.946C271.155 51.7967 271.281 51.596 271.281 51.344C271.281 51.1387 271.197 50.9847 271.029 50.882C270.861 50.77 270.641 50.686 270.371 50.63C270.1 50.574 269.797 50.5227 269.461 50.476C269.134 50.4293 268.803 50.3687 268.467 50.294C268.14 50.21 267.841 50.0933 267.571 49.944C267.3 49.7853 267.081 49.5753 266.913 49.314C266.745 49.0527 266.661 48.7073 266.661 48.278C266.661 47.802 266.796 47.3913 267.067 47.046C267.337 46.6913 267.715 46.4207 268.201 46.234C268.695 46.038 269.279 45.94 269.951 45.94C270.455 45.94 270.963 45.996 271.477 46.108C271.99 46.22 272.415 46.3787 272.751 46.584L272.079 47.914C271.724 47.6993 271.365 47.5547 271.001 47.48C270.646 47.396 270.291 47.354 269.937 47.354C269.405 47.354 269.008 47.4333 268.747 47.592C268.495 47.7507 268.369 47.9513 268.369 48.194C268.369 48.418 268.453 48.586 268.621 48.698C268.789 48.81 269.008 48.8987 269.279 48.964C269.549 49.0293 269.848 49.0853 270.175 49.132C270.511 49.1693 270.842 49.23 271.169 49.314C271.495 49.398 271.794 49.5147 272.065 49.664C272.345 49.804 272.569 50.0047 272.737 50.266C272.905 50.5273 272.989 50.868 272.989 51.288C272.989 51.7547 272.849 52.1607 272.569 52.506C272.298 52.8513 271.911 53.122 271.407 53.318C270.903 53.5047 270.301 53.598 269.601 53.598Z" fill="white"/>
<g clip-path="url(#clip0_108_21087)">
<path d="M650.728 35.5767L653.947 38.0081L651.98 40.5097C653.338 42.0457 653.838 43.7983 653.838 45.7295C653.838 47.9092 653.016 50.9843 650.12 52.3068C653.051 53.7727 653.765 55.8823 653.765 58.1352C653.765 62.9981 650.046 66 644.935 66C639.824 66 636 62.8898 636 58.1352H640.324C640.324 60.4233 642.434 61.9242 644.935 61.9242C647.436 61.9242 649.403 60.5667 649.403 58.1352C649.403 55.7038 647.115 54.5948 644.935 54.5948C639.432 54.5948 636 51.2361 636 45.7295C636 40.2229 640.002 36.7908 644.938 36.7908C646.334 36.7908 647.762 36.9693 648.979 37.7914L650.728 35.5767ZM640.324 45.7295C640.324 48.8046 642.399 50.6274 644.935 50.6274C647.436 50.6274 649.511 48.7696 649.511 45.7295C649.511 42.6894 647.44 40.7614 644.938 40.7614C642.399 40.7614 640.324 42.6543 640.324 45.7295Z" fill="white"/>
<path d="M686.567 30V54.99H682.243V30H686.567Z" fill="white"/>
<path d="M705.999 46.1948C705.999 51.2711 702.532 55.382 696.812 55.382C691.092 55.382 687.66 51.2711 687.66 46.1948C687.66 41.1534 691.162 37.0075 696.777 37.0075C702.392 37.0075 705.999 41.1534 705.999 46.1948ZM692.019 46.1948C692.019 48.8748 693.629 51.3795 696.809 51.3795C699.989 51.3795 701.598 48.8779 701.598 46.1948C701.598 43.5498 699.74 40.975 696.809 40.975C693.664 40.975 692.019 43.5498 692.019 46.1948Z" fill="white"/>
<path d="M711.451 30V39.7608C712.486 37.938 715.383 36.9374 717.241 36.9374C722.387 36.9374 726.214 40.0827 726.214 46.1597C726.214 51.9499 722.317 55.382 717.136 55.382C714.991 55.382 712.811 54.6681 711.451 52.5586L711.164 54.99H707.088V30H711.451ZM711.734 46.1597C711.734 49.34 714.092 51.3444 716.846 51.3444C719.634 51.3444 721.852 49.2348 721.852 46.1597C721.852 42.9794 719.634 41.0132 716.846 41.0132C714.096 41.01 711.734 43.0845 711.734 46.1597Z" fill="white"/>
<path d="M732.699 49.2317C733.712 51.1819 736.032 52.0136 738.922 50.962C740.432 50.4107 742.207 49.1201 742.794 47.804L746.356 49.4356C745.27 51.8862 742.733 53.7982 740.213 54.7159C734.502 56.7937 729.824 54.5024 727.893 49.1934C726.058 44.1553 728.164 39.2796 733.54 37.323C739.081 35.3058 743.791 37.4728 745.633 44.5249L732.699 49.2317ZM740.467 42.5619C739.416 40.5097 737.345 40.0476 734.993 40.9017C732.775 41.7079 731.354 43.4446 731.532 45.8123L740.467 42.5619Z" fill="white"/>
<path fill-rule="evenodd" clip-rule="evenodd" d="M675.763 41.9898C674.349 39.0403 671.402 37.0075 667.47 37.0075C661.856 37.0075 658.354 41.1534 658.354 46.1948C658.354 49.4132 659.733 52.2436 662.201 53.8843C662.341 53.779 662.426 53.7108 662.426 53.7108C663.657 52.9077 664.857 52.0624 666.026 51.1765C663.824 50.5287 662.713 48.4223 662.713 46.1948C662.713 43.5498 664.36 40.975 667.502 40.975C670.269 40.975 672.079 43.2686 672.274 45.7501C673.487 44.5464 674.651 43.292 675.763 41.9898ZM667.06 55.3736C670.542 52.9057 673.761 50.0866 676.665 46.9631C676.333 51.6795 672.934 55.382 667.505 55.382C667.355 55.382 667.207 55.3791 667.06 55.3736Z" fill="#8DD3BB"/>
<path d="M679.318 34.5378C674.863 32.8999 671.661 36.4244 671.661 36.4244L674.697 38.1898C675.835 37.5365 676.342 38.1707 676.472 38.518C676.565 38.7634 676.44 39.0311 676.342 39.1777L675.602 40.1114C671.613 44.9233 666.922 49.1042 661.687 52.5203C661.687 52.5203 660.106 53.795 659.265 53.8141C658.558 53.8301 658.242 53.2341 658.838 52.3801L657.372 49.0723C657.372 49.0723 653.558 51.5707 654.297 55.9619C654.61 57.8166 656.353 59.1359 658.204 58.8013C659.15 58.6324 660.32 58.1703 661.751 57.2239L664.383 55.5031C669.618 52.0806 674.312 47.8869 678.298 43.0686L679.203 41.9756C680.567 40.4237 681.179 39.1458 681.386 38.1356C681.705 36.5901 680.79 35.0796 679.318 34.5378Z" fill="#8DD3BB"/>
</g>
<path d="M1179.26 53.5H1172.32V43.7H1174.14V51.96H1179.26V53.5ZM1183.82 53.598C1183.06 53.598 1182.38 53.4347 1181.78 53.108C1181.17 52.7813 1180.69 52.3287 1180.35 51.75C1180.01 51.162 1179.84 50.4993 1179.84 49.762C1179.84 49.0247 1180.01 48.3667 1180.35 47.788C1180.69 47.2093 1181.17 46.7567 1181.78 46.43C1182.38 46.1033 1183.06 45.94 1183.82 45.94C1184.59 45.94 1185.27 46.1033 1185.88 46.43C1186.49 46.7567 1186.96 47.2093 1187.29 47.788C1187.64 48.3667 1187.81 49.0247 1187.81 49.762C1187.81 50.4993 1187.64 51.162 1187.29 51.75C1186.96 52.3287 1186.49 52.7813 1185.88 53.108C1185.27 53.4347 1184.59 53.598 1183.82 53.598ZM1183.82 52.1C1184.46 52.1 1185 51.8853 1185.42 51.456C1185.84 51.0267 1186.05 50.462 1186.05 49.762C1186.05 49.062 1185.84 48.4973 1185.42 48.068C1185 47.6387 1184.46 47.424 1183.82 47.424C1183.18 47.424 1182.64 47.6387 1182.22 48.068C1181.81 48.4973 1181.61 49.062 1181.61 49.762C1181.61 50.462 1181.81 51.0267 1182.22 51.456C1182.64 51.8853 1183.18 52.1 1183.82 52.1ZM1195.24 46.024H1196.9V52.366C1196.9 54.998 1195.56 56.314 1192.87 56.314C1192.15 56.314 1191.47 56.2207 1190.83 56.034C1190.18 55.8567 1189.65 55.5953 1189.23 55.25L1190.02 53.934C1190.34 54.2047 1190.75 54.4193 1191.25 54.578C1191.75 54.746 1192.26 54.83 1192.77 54.83C1193.6 54.83 1194.2 54.6433 1194.58 54.27C1194.96 53.8967 1195.15 53.3273 1195.15 52.562V52.17C1194.86 52.4967 1194.49 52.744 1194.06 52.912C1193.63 53.08 1193.16 53.164 1192.65 53.164C1191.94 53.164 1191.29 53.0147 1190.72 52.716C1190.15 52.408 1189.69 51.9787 1189.36 51.428C1189.03 50.8773 1188.87 50.2473 1188.87 49.538C1188.87 48.8287 1189.03 48.2033 1189.36 47.662C1189.69 47.1113 1190.15 46.6867 1190.72 46.388C1191.29 46.0893 1191.94 45.94 1192.65 45.94C1193.19 45.94 1193.68 46.0287 1194.12 46.206C1194.57 46.3833 1194.94 46.654 1195.24 47.018V46.024ZM1192.91 51.68C1193.58 51.68 1194.12 51.484 1194.54 51.092C1194.97 50.6907 1195.18 50.1727 1195.18 49.538C1195.18 48.9127 1194.97 48.404 1194.54 48.012C1194.12 47.62 1193.58 47.424 1192.91 47.424C1192.24 47.424 1191.69 47.62 1191.26 48.012C1190.84 48.404 1190.63 48.9127 1190.63 49.538C1190.63 50.1727 1190.84 50.6907 1191.26 51.092C1191.69 51.484 1192.24 51.68 1192.91 51.68ZM1200.95 53.5H1199.2V46.024H1200.95V53.5ZM1200.09 44.792C1199.77 44.792 1199.5 44.694 1199.29 44.498C1199.07 44.2927 1198.97 44.0407 1198.97 43.742C1198.97 43.4433 1199.07 43.196 1199.29 43C1199.5 42.7947 1199.77 42.692 1200.09 42.692C1200.4 42.692 1200.67 42.79 1200.88 42.986C1201.1 43.1727 1201.21 43.4107 1201.21 43.7C1201.21 44.008 1201.1 44.2693 1200.88 44.484C1200.68 44.6893 1200.41 44.792 1200.09 44.792ZM1207.49 45.94C1208.44 45.94 1209.19 46.2153 1209.76 46.766C1210.33 47.3167 1210.62 48.1333 1210.62 49.216V53.5H1208.87V49.44C1208.87 48.7867 1208.71 48.2967 1208.4 47.97C1208.1 47.634 1207.66 47.466 1207.09 47.466C1206.44 47.466 1205.93 47.662 1205.56 48.054C1205.19 48.4367 1205 48.992 1205 49.72V53.5H1203.25V46.024H1204.92V46.99C1205.21 46.6447 1205.57 46.3833 1206.01 46.206C1206.45 46.0287 1206.94 45.94 1207.49 45.94Z" fill="white"/>
<g clip-path="url(#clip1_108_21087)">
<rect x="1244" y="24" width="104" height="48" rx="8" fill="white"/>
<path d="M1272.78 53.64C1272.02 53.64 1271.29 53.5327 1270.58 53.318C1269.88 53.1033 1269.32 52.8187 1268.91 52.464L1269.54 51.05C1269.95 51.3673 1270.44 51.6287 1271.01 51.834C1271.6 52.03 1272.19 52.128 1272.78 52.128C1273.51 52.128 1274.05 52.0113 1274.4 51.778C1274.77 51.5447 1274.95 51.2367 1274.95 50.854C1274.95 50.574 1274.85 50.3453 1274.64 50.168C1274.44 49.9813 1274.19 49.8367 1273.88 49.734C1273.58 49.6313 1273.16 49.5147 1272.62 49.384C1271.88 49.2067 1271.27 49.0293 1270.8 48.852C1270.35 48.6747 1269.95 48.3993 1269.61 48.026C1269.29 47.6433 1269.12 47.13 1269.12 46.486C1269.12 45.9447 1269.27 45.4547 1269.56 45.016C1269.86 44.568 1270.3 44.2133 1270.89 43.952C1271.49 43.6907 1272.21 43.56 1273.07 43.56C1273.67 43.56 1274.26 43.6347 1274.84 43.784C1275.41 43.9333 1275.91 44.148 1276.33 44.428L1275.76 45.842C1275.33 45.59 1274.88 45.3987 1274.42 45.268C1273.95 45.1373 1273.5 45.072 1273.06 45.072C1272.34 45.072 1271.8 45.1933 1271.45 45.436C1271.1 45.6787 1270.93 46.0007 1270.93 46.402C1270.93 46.682 1271.03 46.9107 1271.22 47.088C1271.43 47.2653 1271.69 47.4053 1271.99 47.508C1272.3 47.6107 1272.72 47.7273 1273.25 47.858C1273.98 48.026 1274.58 48.2033 1275.05 48.39C1275.51 48.5673 1275.91 48.8427 1276.24 49.216C1276.57 49.5893 1276.74 50.0933 1276.74 50.728C1276.74 51.2693 1276.59 51.7593 1276.29 52.198C1276 52.6367 1275.56 52.9867 1274.96 53.248C1274.36 53.5093 1273.64 53.64 1272.78 53.64ZM1280.13 53.5H1278.38V46.024H1280.13V53.5ZM1279.26 44.792C1278.94 44.792 1278.68 44.694 1278.46 44.498C1278.25 44.2927 1278.14 44.0407 1278.14 43.742C1278.14 43.4433 1278.25 43.196 1278.46 43C1278.68 42.7947 1278.94 42.692 1279.26 42.692C1279.58 42.692 1279.84 42.79 1280.06 42.986C1280.27 43.1727 1280.38 43.4107 1280.38 43.7C1280.38 44.008 1280.27 44.2693 1280.06 44.484C1279.85 44.6893 1279.59 44.792 1279.26 44.792ZM1288.18 46.024H1289.84V52.366C1289.84 54.998 1288.5 56.314 1285.81 56.314C1285.09 56.314 1284.41 56.2207 1283.77 56.034C1283.12 55.8567 1282.59 55.5953 1282.17 55.25L1282.96 53.934C1283.28 54.2047 1283.69 54.4193 1284.19 54.578C1284.69 54.746 1285.2 54.83 1285.71 54.83C1286.53 54.83 1287.14 54.6433 1287.52 54.27C1287.9 53.8967 1288.09 53.3273 1288.09 52.562V52.17C1287.79 52.4967 1287.43 52.744 1287 52.912C1286.57 53.08 1286.1 53.164 1285.59 53.164C1284.88 53.164 1284.23 53.0147 1283.66 52.716C1283.09 52.408 1282.63 51.9787 1282.3 51.428C1281.97 50.8773 1281.81 50.2473 1281.81 49.538C1281.81 48.8287 1281.97 48.2033 1282.3 47.662C1282.63 47.1113 1283.09 46.6867 1283.66 46.388C1284.23 46.0893 1284.88 45.94 1285.59 45.94C1286.13 45.94 1286.62 46.0287 1287.06 46.206C1287.51 46.3833 1287.88 46.654 1288.18 47.018V46.024ZM1285.85 51.68C1286.52 51.68 1287.06 51.484 1287.48 51.092C1287.91 50.6907 1288.12 50.1727 1288.12 49.538C1288.12 48.9127 1287.91 48.404 1287.48 48.012C1287.06 47.62 1286.52 47.424 1285.85 47.424C1285.18 47.424 1284.63 47.62 1284.2 48.012C1283.78 48.404 1283.57 48.9127 1283.57 49.538C1283.57 50.1727 1283.78 50.6907 1284.2 51.092C1284.63 51.484 1285.18 51.68 1285.85 51.68ZM1296.39 45.94C1297.33 45.94 1298.08 46.2153 1298.65 46.766C1299.22 47.3167 1299.51 48.1333 1299.51 49.216V53.5H1297.76V49.44C1297.76 48.7867 1297.6 48.2967 1297.3 47.97C1296.99 47.634 1296.55 47.466 1295.98 47.466C1295.34 47.466 1294.83 47.662 1294.45 48.054C1294.08 48.4367 1293.89 48.992 1293.89 49.72V53.5H1292.14V46.024H1293.81V46.99C1294.1 46.6447 1294.46 46.3833 1294.9 46.206C1295.34 46.0287 1295.84 45.94 1296.39 45.94ZM1311.09 46.024H1312.84V53.5H1311.17V52.548C1310.89 52.884 1310.54 53.1453 1310.12 53.332C1309.7 53.5093 1309.25 53.598 1308.76 53.598C1307.76 53.598 1306.97 53.3227 1306.4 52.772C1305.83 52.212 1305.54 51.386 1305.54 50.294V46.024H1307.29V50.056C1307.29 50.728 1307.44 51.232 1307.74 51.568C1308.05 51.8947 1308.48 52.058 1309.04 52.058C1309.67 52.058 1310.16 51.8667 1310.53 51.484C1310.9 51.092 1311.09 50.532 1311.09 49.804V46.024ZM1319.27 45.94C1320 45.94 1320.65 46.0987 1321.22 46.416C1321.8 46.7333 1322.25 47.1813 1322.57 47.76C1322.9 48.3387 1323.06 49.006 1323.06 49.762C1323.06 50.518 1322.9 51.19 1322.57 51.778C1322.25 52.3567 1321.8 52.8047 1321.22 53.122C1320.65 53.4393 1320 53.598 1319.27 53.598C1318.26 53.598 1317.46 53.262 1316.88 52.59V56.216H1315.13V46.024H1316.79V47.004C1317.08 46.6493 1317.44 46.3833 1317.86 46.206C1318.29 46.0287 1318.76 45.94 1319.27 45.94ZM1319.07 52.1C1319.72 52.1 1320.25 51.8853 1320.66 51.456C1321.08 51.0267 1321.29 50.462 1321.29 49.762C1321.29 49.062 1321.08 48.4973 1320.66 48.068C1320.25 47.6387 1319.72 47.424 1319.07 47.424C1318.65 47.424 1318.28 47.522 1317.94 47.718C1317.6 47.9047 1317.34 48.1753 1317.14 48.53C1316.95 48.8847 1316.85 49.2953 1316.85 49.762C1316.85 50.2287 1316.95 50.6393 1317.14 50.994C1317.34 51.3487 1317.6 51.624 1317.94 51.82C1318.28 52.0067 1318.65 52.1 1319.07 52.1Z" fill="#112211"/>
</g>
<defs>
<clipPath id="clip0_108_21087">
<rect width="110.353" height="36" fill="white" transform="translate(636 30)"/>
</clipPath>
<clipPath id="clip1_108_21087">
<rect x="1244" y="24" width="104" height="48" rx="8" fill="white"/>
</clipPath>
</defs>
</svg>
